<?xml version="1.0" encoding="utf-8"?>
<!-- Generator: Adobe Illustrator 21.0.2, SVG Export Plug-In . SVG Version: 6.00 Build 0)  -->
<svg version="1.1" id="Layer_1" xmlns="http://www.w3.org/2000/svg" xmlns:xlink="http://www.w3.org/1999/xlink" x="0px" y="0px"
	 viewBox="0 0 512 512" style="enable-background:new 0 0 512 512;" xml:space="preserve">
<style type="text/css">
	.st0{fill:#FF5A55;}
	.st1{fill:#B7BF03;}
	.st2{fill:#FFF06B;}
	.st3{fill:#E0F4B4;}
	.st4{fill:#80086E;}
	.st5{fill:#FFD3FF;}
	.st6{fill:#57004A;}
</style>
<g>
	<path class="st0" d="M228.7,284.1L108.3,403.1c-36.9-158.3-47.1-179.7-26.1-213C109.4,147,158.4,86.2,187.5,54.7
		C161.2,116.2,248.4,198.6,228.7,284.1z"/>
	<path class="st1" d="M457.6,327.9c-31.8,28.8-93.1,77.1-136.6,103.8c-33.5,20.6-54.9,10.2-212.7-28.5l120.4-119.1
		C314.4,265.4,395.8,353.5,457.6,327.9z"/>
	<path class="st2" d="M511.9,212.3c-1,40.6-16.8,81.5-54.4,115.5c-61.7,25.6-143.2-62.5-228.8-43.8l90-88.9
		C394.4,170.2,455.8,233.9,511.9,212.3z"/>
	<path class="st3" d="M318.7,195.1l-90,88.9c19.7-85.5-67.5-167.9-41.2-229.3C222,17.5,263,2.2,303.7,1.7
		C281.4,57.6,344.5,119.8,318.7,195.1z"/>
	<path class="st4" d="M318.7,195.1c25.8-75.4-37.2-137.5-15-193.4c55.8-0.7,110.9,26.4,147,62.9s62.6,91.9,61.3,147.7
		C455.8,233.9,394.4,170.2,318.7,195.1z"/>
	<path class="st1" d="M222.4,474.7c-1.8,5.7-7.8,9.2-13.4,7.8c-0.8-0.2-78.8-19.8-138.8-34.5l-5.8-1.4l18-17.8
		c59.1,14.6,132.3,32.9,133,33.1C221.1,463.2,224.2,469,222.4,474.7z"/>
	<path class="st5" d="M118.2,491.7c-1.8,5.7-7.8,9.2-13.4,7.8c-22.3-5.6-47.1-11.7-69.4-17.2l-5.8-1.4l18-17.8
		c20.8,5.1,43.3,10.7,63.7,15.8C116.9,480.3,120,486,118.2,491.7z"/>
	<path class="st3" d="M47.7,463.1l-18,17.8l-1.4-5.8c-5.3-22.4-11.1-47.2-16.4-69.6c-1.3-5.6,2.2-11.6,8-13.3
		c5.7-1.7,11.4,1.4,12.8,7.1C37.4,419.7,42.8,442.2,47.7,463.1z"/>
	<path class="st0" d="M82.5,428.7l-18,17.8l-1.4-5.8C49,380.5,30.3,302.3,30.1,301.5c-1.3-5.6,2.2-11.6,7.9-13.3
		c5.7-1.7,11.4,1.4,12.8,7C51.1,296,68.6,369.4,82.5,428.7z"/>
	<path class="st6" d="M2.8,507.4c-4-4-3.7-10.8,0.6-15l391.7-387.2c4.3-4.3,11.1-4.5,15-0.4c4,4,3.7,10.8-0.6,15L17.9,507
		C13.5,511.3,6.8,511.5,2.8,507.4z"/>
</g>
</svg>
